HIERARCHY
ROOT Hips
{
	OFFSET 0.00000 0.00000 0.00000
	CHANNELS 6 Xposition Yposition Zposition Zrotation Yrotation Xrotation 
	JOINT LHipJoint
	{
		OFFSET 0 0 0
		CHANNELS 3 Zrotation Yrotation Xrotation
		JOINT LeftHip
		{
			OFFSET 1.62329 -1.80800 0.67318
			CHANNELS 3 Zrotation Yrotation Xrotation
			JOINT LeftKnee
			{
				OFFSET 2.57139 -7.06484 0.00000
				CHANNELS 3 Zrotation Yrotation Xrotation
				JOINT LeftAnkle
				{
					OFFSET 2.52017 -6.92413 0.00000
					CHANNELS 3 Zrotation Yrotation Xrotation
					JOINT LeftToe
					{
						OFFSET 0.23295 -0.64001 2.10214
						CHANNELS 3 Zrotation Yrotation Xrotation
						End Site
						{
							OFFSET 0.00000 -0.00000 1.10139
						}
					}
				}
			}
		}
	}
	JOINT RHipJoint
	{
		OFFSET 0 0 0
		CHANNELS 3 Zrotation Yrotation Xrotation
		JOINT RightHip
		{
			OFFSET -1.48061 -1.80800 0.67318
			CHANNELS 3 Zrotation Yrotation Xrotation
			JOINT RightKnee
			{
				OFFSET -2.63258 -7.23296 0.00000
				CHANNELS 3 Zrotation Yrotation Xrotation
				JOINT RightAnkle
				{
					OFFSET -2.54779 -7.00000 0.00000
					CHANNELS 3 Zrotation Yrotation Xrotation
					JOINT RightToe
					{
						OFFSET -0.23067 -0.63376 2.12161
						CHANNELS 3 Zrotation Yrotation Xrotation
						End Site
						{
							OFFSET -0.00000 -0.00000 1.11000
						}
					}
				}
			}
		}
	}
	JOINT lowerback
	{
		OFFSET 0 0 0
		CHANNELS 3 Zrotation Yrotation Xrotation
		JOINT Chest
		{
			OFFSET -0.02108 2.07573 -0.16981
			CHANNELS 3 Zrotation Yrotation Xrotation
			JOINT Chest2
			{
				OFFSET 0.05070 2.08439 -0.03141
				CHANNELS 3 Zrotation Yrotation Xrotation
				JOINT lowerneck
				{
					OFFSET 0 0 0
					CHANNELS 3 Zrotation Yrotation Xrotation
					JOINT Neck
					{
						OFFSET -0.10731 1.60408 0.31370
						CHANNELS 3 Zrotation Yrotation Xrotation
						JOINT Head
						{
							OFFSET 0.08411 1.65679 -0.30822
							CHANNELS 3 Zrotation Yrotation Xrotation
							End Site
							{
								OFFSET 0.03911 1.69149 -0.14146
							}
						}
					}
				}
				JOINT LeftCollar
				{
					OFFSET 0 0 0
					CHANNELS 3 Zrotation Yrotation Xrotation
					JOINT LeftShoulder
					{
						OFFSET 3.52315 0.73219 -0.54694
CHANNELS 3 Zrotation Xrotation Yrotation
						JOINT LeftElbow
						{
OFFSET 0 -5.324620 -0.000000
CHANNELS 3 Zrotation Xrotation Yrotation
							JOINT LeftWrist
							{
OFFSET 0 -3.484020 -0.000000
CHANNELS 3 Zrotation Xrotation Yrotation
								JOINT lhand
								{
									OFFSET 0 0 0
CHANNELS 3 Zrotation Xrotation Yrotation
									JOINT LFingers
									{
OFFSET 0 -0.572480 -0.000000
CHANNELS 3 Zrotation Xrotation Yrotation
										End Site
										{
OFFSET 0 -0.461540 -0.000000
										}
									}
								}
								JOINT LThumb
								{
OFFSET 0 0.000000 0.000000
CHANNELS 3 Zrotation Xrotation Yrotation
									End Site
									{
OFFSET 0 -0.468590 0.468590
									}
								}
							}
						}
					}
				}
				JOINT RightCollar
				{
					OFFSET 0 0 0
					CHANNELS 3 Zrotation Yrotation Xrotation
					JOINT RightShoulder
					{
						OFFSET -3.41766 0.93592 -0.10019
CHANNELS 3 Zrotation Xrotation Yrotation
						JOINT RightElbow
						{
OFFSET 0 -5.335890 -0.000000
CHANNELS 3 Zrotation Xrotation Yrotation
							JOINT RightWrist
							{
OFFSET 0 -3.641340 -0.000000
CHANNELS 3 Zrotation Xrotation Yrotation
								JOINT rhand
								{
									OFFSET 0 0 0
CHANNELS 3 Zrotation Xrotation Yrotation
									JOINT RFingers
									{
OFFSET 0 -0.734810 -0.000000
CHANNELS 3 Zrotation Xrotation Yrotation
										End Site
										{
OFFSET 0 -0.592420 -0.000000
										}
									}
								}
								JOINT RThumb
								{
OFFSET 0 0.000000 0.000000
CHANNELS 3 Zrotation Xrotation Yrotation
									End Site
									{
OFFSET 0 -0.601470 0.601470
									}
								}
							}
						}
					}
				}
			}
		}
	}
}
MOTION
Frames: 4
Frame Time: 0.008333333333333333
-0.864000 17.802700 2.241300 0.473100 -15.893900 5.585100 0.000000 0.000000 0.000000 -20.420200 -2.309100 -3.270400 1.169000 6.863200 19.310600 0.183400 14.458900 -22.426300 0.900200 -6.046900 -16.920600 0.000000 0.000000 0.000000 12.281100 12.148300 -13.068300 -2.589400 -9.998600 28.972300 -0.832100 3.904600 -16.362200 -0.047800 -1.410500 3.879100 -4.228000 -1.992400 -1.602700 2.798200 -2.616300 -2.208000 5.242200 -1.237100 -1.056700 -14.087400 -8.392700 -19.604400 6.493900 -9.429800 26.614800 3.193200 -4.789800 13.243300 0.000000 -0.000000 0.000000 -0.139500 1.855200 -28.562100 14.475100 -23.409800 3.014300 13.705200 15.714900 -24.786100 0.000000 0.000000 0.000000 -7.125000 0.000000 0.000000 -16.748000 54.611200 4.039600 0.000000 -0.000000 0.000000 -7.257700 -0.120200 22.999500 -16.120300 -25.683500 -3.698000 -19.473900 17.203400 -2.067200 0.000000 0.000000 0.000000 7.125000 0.000000 -0.000000 5.477900 27.773900 2.303900
-0.833195 17.801409 2.243063 -0.735383 -15.887602 4.993583 0.000000 0.000000 0.000000 -19.244483 -2.297961 -2.844643 1.304326 7.234951 20.413145 0.288879 14.299098 -23.227483 0.846491 -5.868155 -16.402478 0.000000 0.000000 0.000000 13.875053 13.060800 -11.325670 -2.469991 -9.783075 28.276968 -0.876552 2.527232 -17.018947 -0.028578 -1.089416 2.994864 -3.089608 -1.857686 -0.949270 2.845801 -2.456936 -1.852599 4.664118 -1.176292 -1.117936 -13.822531 -8.387547 -19.563883 5.982866 -9.368620 26.828893 2.962975 -4.806947 13.270676 0.000000 0.000000 0.000000 0.394665 1.261992 -29.175946 14.170060 -22.977354 2.894192 14.637954 16.101258 -24.398552 0.000000 0.000000 0.000000 -7.125000 0.000000 0.000000 -15.614977 54.412476 3.679394 0.000000 0.000000 0.000000 -6.876088 -0.369028 23.163882 -16.171695 -25.752947 -3.720255 -19.842297 17.811462 -2.572979 0.000000 0.000000 0.000000 7.125000 0.000000 0.000000 5.174862 27.234858 2.241435
-0.782669 17.789174 2.254390 -0.474104 -15.899313 4.643081 0.000000 0.000000 0.000000 -19.646270 -1.662910 -2.764439 1.300496 7.224805 20.383015 0.337973 13.792154 -23.074976 0.867985 -5.940494 -16.612017 0.000000 0.000000 0.000000 13.466435 12.634356 -11.361260 -2.524813 -9.882886 28.598368 -0.868935 2.639785 -16.921408 -0.008651 -0.599925 1.648459 -3.401939 -1.869458 -0.768543 2.711023 -2.477656 -1.836087 4.707021 -1.181874 -1.193545 -14.064934 -8.306373 -19.325867 5.854903 -9.179953 27.054522 2.996029 -4.776451 13.302379 0.000000 0.000000 0.000000 0.256169 1.292529 -28.729697 14.235577 -23.070493 2.919798 14.555087 16.574243 -24.594775 0.000000 0.000000 0.000000 -7.125000 0.000000 0.000000 -15.798239 54.587690 3.792263 0.000000 0.000000 0.000000 -7.078199 -0.142457 23.891048 -16.041444 -25.576830 -3.663872 -19.413960 17.748911 -2.587863 0.000000 0.000000 0.000000 7.125000 0.000000 0.000000 5.502153 27.225075 2.385632
-0.745112 17.788021 2.253269 -0.418173 -15.947231 4.521811 0.000000 0.000000 0.000000 -19.812916 -1.584635 -2.709264 1.297064 7.215477 20.355416 0.352285 13.662039 -23.053674 0.812692 -5.752599 -16.068223 0.000000 0.000000 0.000000 13.312036 12.596415 -11.417407 -2.548440 -9.925390 28.735528 -0.861585 2.488784 -16.875104 -0.004152 -0.416559 1.144516 -3.541649 -1.738965 -0.591948 2.486342 -2.309571 -1.779820 4.558304 -1.096286 -1.256264 -14.056832 -8.387284 -19.367608 5.870254 -9.303637 27.154854 2.976247 -4.827965 13.368245 0.000000 0.000000 0.000000 0.421523 0.901345 -28.672523 14.337251 -23.214811 2.959750 14.377835 15.623551 -24.792591 0.000000 0.000000 0.000000 -7.125000 0.000000 0.000000 -16.078489 54.745665 3.924783 0.000000 0.000000 0.000000 -6.873613 0.252439 24.129899 -16.181722 -25.766367 -3.724657 -18.673116 17.763627 -1.531592 0.000000 0.000000 0.000000 7.125000 0.000000 0.000000 6.121840 28.343055 2.494121
